<?xml version="1.0" ?><svg enable-background="new 0 0 32 32" version="1.1" viewBox="0 0 32 32" xml:space="preserve" xmlns="http://www.w3.org/2000/svg" xmlns:xlink="http://www.w3.org/1999/xlink"><g id="Glyph"><g><g><path d="M16,3.007C8.836,3.007,3.006,8.835,3.006,16S8.836,28.994,16,28.994S28.993,23.164,28.993,16     S23.164,3.007,16,3.007z M11.025,17.652c0,0.61-0.495,1.106-1.106,1.106c-0.61,0-1.106-0.495-1.106-1.106V13.23     c0-0.61,0.495-1.106,1.106-1.106c0.61,0,1.106,0.495,1.106,1.106V17.652z M20.422,20.969h-1.106v2.764     c0,0.61-0.495,1.106-1.106,1.106c-0.61,0-1.106-0.495-1.106-1.106v-2.764h-2.211v2.764c0,0.61-0.495,1.106-1.106,1.106     c-0.61,0-1.106-0.495-1.106-1.106v-2.764h-1.106v-8.292h8.844V20.969z M11.578,12.125c0-1.465,0.715-2.759,1.811-3.564     l-0.568-0.984c-0.076-0.133-0.03-0.301,0.101-0.378C13.055,7.123,13.223,7.168,13.3,7.3l0.554,0.96     C14.49,7.905,15.221,7.702,16,7.702c0.779,0,1.51,0.203,2.146,0.557l0.553-0.959c0.076-0.133,0.246-0.179,0.378-0.102     c0.133,0.077,0.179,0.245,0.102,0.378L18.611,8.56c1.096,0.805,1.811,2.099,1.811,3.564H11.578z M23.186,17.652     c0,0.61-0.495,1.106-1.106,1.106c-0.61,0-1.106-0.495-1.106-1.106V13.23c0-0.61,0.495-1.106,1.106-1.106     c0.61,0,1.106,0.495,1.106,1.106V17.652z" fill="#1A1718"/></g><g><circle cx="17.658" cy="9.914" fill="#1A1718" r="0.553"/></g><g><circle cx="14.342" cy="9.914" fill="#1A1718" r="0.553"/></g><g><path d="M16,0C7.164,0,0,7.163,0,16s7.164,16,16,16s16-7.164,16-16S24.836,0,16,0z M16,29.494     C8.547,29.494,2.506,23.452,2.506,16S8.547,2.507,16,2.507S29.493,8.547,29.493,16S23.453,29.494,16,29.494z" fill="#1A1718"/></g></g></g></svg>